<svg width="18" height="18" viewBox="0 0 18 18" fill="#8FD7F3" xmlns="http://www.w3.org/2000/svg">
<path d="M15.4434 9.882C15.4794 9.594 15.5064 9.306 15.5064 9C15.5064 8.694 15.4794 8.406 15.4434 8.118L17.3424 6.633C17.5134 6.498 17.5584 6.255 17.4504 6.057L15.6504 2.943C15.5694 2.799 15.4164 2.718 15.2544 2.718C15.2004 2.718 15.1464 2.727 15.1014 2.745L12.8604 3.645C12.3924 3.285 11.8884 2.988 11.3394 2.763L10.9974 0.378C10.9704 0.162 10.7814 0 10.5564 0H6.9564C6.7314 0 6.5424 0.162 6.5154 0.378L6.1734 2.763C5.6244 2.988 5.1204 3.294 4.6524 3.645L2.4114 2.745C2.3574 2.727 2.3034 2.718 2.2494 2.718C2.0964 2.718 1.9434 2.799 1.8624 2.943L0.0623984 6.057C-0.0546016 6.255 -0.000601472 6.498 0.170399 6.633L2.0694 8.118C2.0334 8.406 2.0064 8.703 2.0064 9C2.0064 9.297 2.0334 9.594 2.0694 9.882L0.170399 11.367C-0.000601472 11.502 -0.0456016 11.745 0.0623984 11.943L1.8624 15.057C1.9434 15.201 2.0964 15.282 2.2584 15.282C2.3124 15.282 2.3664 15.273 2.4114 15.255L4.6524 14.355C5.1204 14.715 5.6244 15.012 6.1734 15.237L6.5154 17.622C6.5424 17.838 6.7314 18 6.9564 18H10.5564C10.7814 18 10.9704 17.838 10.9974 17.622L11.3394 15.237C11.8884 15.012 12.3924 14.706 12.8604 14.355L15.1014 15.255C15.1554 15.273 15.2094 15.282 15.2634 15.282C15.4164 15.282 15.5694 15.201 15.6504 15.057L17.4504 11.943C17.5584 11.745 17.5134 11.502 17.3424 11.367L15.4434 9.882ZM13.6614 8.343C13.6974 8.622 13.7064 8.811 13.7064 9C13.7064 9.189 13.6884 9.387 13.6614 9.657L13.5354 10.674L14.3364 11.304L15.3084 12.06L14.6784 13.149L13.5354 12.69L12.5994 12.312L11.7894 12.924C11.4024 13.212 11.0334 13.428 10.6644 13.581L9.7104 13.968L9.5664 14.985L9.3864 16.2H8.1264L7.9554 14.985L7.8114 13.968L6.8574 13.581C6.4704 13.419 6.1104 13.212 5.7504 12.942L4.9314 12.312L3.9774 12.699L2.8344 13.158L2.2044 12.069L3.1764 11.313L3.9774 10.683L3.8514 9.666C3.8244 9.387 3.8064 9.18 3.8064 9C3.8064 8.82 3.8244 8.613 3.8514 8.343L3.9774 7.326L3.1764 6.696L2.2044 5.94L2.8344 4.851L3.9774 5.31L4.9134 5.688L5.7234 5.076C6.1104 4.788 6.4794 4.572 6.8484 4.419L7.8024 4.032L7.9464 3.015L8.1264 1.8H9.3774L9.5484 3.015L9.6924 4.032L10.6464 4.419C11.0334 4.581 11.3934 4.788 11.7534 5.058L12.5724 5.688L13.5264 5.301L14.6694 4.842L15.2994 5.931L14.3364 6.696L13.5354 7.326L13.6614 8.343ZM8.7564 5.4C6.7674 5.4 5.1564 7.011 5.1564 9C5.1564 10.989 6.7674 12.6 8.7564 12.6C10.7454 12.6 12.3564 10.989 12.3564 9C12.3564 7.011 10.7454 5.4 8.7564 5.4ZM8.7564 10.8C7.7664 10.8 6.9564 9.99 6.9564 9C6.9564 8.01 7.7664 7.2 8.7564 7.2C9.7464 7.2 10.5564 8.01 10.5564 9C10.5564 9.99 9.7464 10.8 8.7564 10.8Z"/>
</svg>
