<svg width="18" height="18" viewBox="0 0 18 18" fill="#8FD7F3" xmlns="http://www.w3.org/2000/svg">
<path d="M1.28571 6.26712H0V15.2671C0 15.9743 0.578571 16.5528 1.28571 16.5528H12.8571V15.2671H1.28571V6.26712Z"/>
<path d="M3.85725 3.69556H2.57153V12.6955C2.57153 13.4027 3.1501 13.9813 3.85725 13.9813H15.4287V12.6955H3.85725V3.69556Z"/>
<path d="M16.7142 1.125H6.42854C5.72139 1.125 5.14282 1.70357 5.14282 2.41071V10.125C5.14282 10.8321 5.72139 11.4107 6.42854 11.4107H16.7142C17.4214 11.4107 18 10.8321 18 10.125V2.41071C18 1.70357 17.4214 1.125 16.7142 1.125ZM16.7142 10.125H6.42854V4.98214H16.7142V10.125Z"/>
</svg>
